<svg width="200" height="200" xmlns="http://www.w3.org/2000/svg" version="1.0" preserveAspectRatio="xMidYMid meet">
 <g>
  <title>Layer 1</title>
  <g id="svg_21">
   <path d="m83.8634,3.50922c-22.7,5.8 -41.4,18.9 -53.5,37.2c-4.5,6.9 -9.9,18.7 -11.3,24.5l-0.6,2.8l9.2,0.1c37.7,0.6 84.3,-1.2 95.6,-3.6c7.9,-1.6 11.2,-1.3 15.5,1.7c5.6,3.9 7.2,11.4 4.2,19.7c-0.8,2.3 -3.4,8.1 -5.7,12.9c-7.9,16.1 -19.2,24.9 -40.3,31.5c-12.4,3.9 -52.6,12.6 -62.8,13.7c-9.3,0.9 -21,0 -24.7,-2c-3.1,-1.7 -3.3,-1.3 -2.8,5.3c0.6,7.3 2.5,11.3 11.8,25.2c3.7,5.5 8.2,12.8 10,16.3c5.7,10.7 9,11.9 24.7,8.6c10,-2 15.1,-4 31.8,-12.4c7.7,-3.9 26.4,-12.3 41.5,-18.6c30.7,-13 41.9,-18.4 53.1,-25.5l7.6,-4.9l2.7,-8.7c9.5,-31.3 9.2,-54.7 -0.9,-76.2c-11.7,-24.6 -35.3,-42.9 -62.7,-48.5c-11.9,-2.5 -31.1,-2.1 -42.4,0.9z" id="svg_4"/>
   <path d="m13.9634,70.20923c-0.2,0.7 -2.9,15.8 -6,33.6c-3.8,22.3 -5.2,32.9 -4.6,34c0.8,1.5 1,1.5 1.5,0.2c0.7,-1.9 11.6,-65.4 11.6,-67.5c0,-1.8 -1.9,-2 -2.5,-0.3z" id="svg_5"/>
   <path d="m126.3634,70.50923c-7.7,4.2 -4.5,16.5 4.3,16.5c8.5,0 12.2,-10 5.7,-15.4c-3.4,-2.9 -6.1,-3.2 -10,-1.1zm8.9,3.8c1.7,1.3 1.5,5.7 -0.5,7.9c-2.8,3.1 -7.9,2.1 -9.4,-1.9c-2.2,-5.8 4.7,-10 9.9,-6z" id="svg_6"/>
  </g>
 </g>

</svg>