<svg width="550" height="280" xmlns="http://www.w3.org/2000/svg" version="1.0" preserveAspectRatio="xMidYMid meet">
 <g>
  <title>Layer 1</title>
  <g id="svg_1">
   <path d="m251.34657,5.17746c-13.8,1.1 -31,6.4 -43.8,13.5c-8.3,4.6 -21.2,13.4 -21.2,14.4c0,1.7 14.9,32 15.8,32c0.5,0 1.7,-0.9 2.7,-2c6,-6.6 25.9,-17.6 36.5,-20c21,-5 34.6,2.4 34.4,18.7c0,5.4 -0.7,7.6 -4.7,15.5c-5.4,11 -6.3,12 -47.6,58.3l-32.1,36l0,15.2l0,15.3l68,0l68,0l0,-18l0,-18l-40.5,0c-22.3,0 -40.5,-0.2 -40.5,-0.5c0,-0.3 10.9,-12.8 24.1,-27.8c28.2,-31.7 37.2,-43.3 43.4,-56c7.2,-14.7 9,-25.4 6.4,-37.9c-4.6,-21.9 -26.5,-37.6 -54.4,-39c-3.3,-0.2 -9.8,0 -14.5,0.3z" id="svg_2"/>
   <path d="m7.04656,7.77746c-0.4,0.3 -0.7,44.4 -0.7,98l0,97.3l22,0l22,0l0,-32l0,-32l14.3,0l14.3,0l17.3,32l17.3,32l24.4,0c13.4,0 24.4,-0.3 24.4,-0.6c0,-0.3 -9.1,-15.5 -20.1,-33.8c-11.1,-18.2 -20.3,-33.4 -20.5,-33.8c-0.2,-0.3 3,-2.3 7.1,-4.3c14.4,-7.1 24.5,-20.2 29.2,-37.5c2.5,-9.3 2.5,-34.1 -0.1,-42.5c-7.9,-26.3 -27.2,-39.7 -61.1,-42.5c-13.4,-1.1 -88.8,-1.4 -89.8,-0.3zm96.9,39.1c9.4,4.3 14,11.1 15.1,22.5c0.7,8 -1,16.3 -4.7,22c-2.2,3.6 -4.3,5.2 -9.7,7.9l-6.8,3.3l-23.7,0.3l-23.8,0.4l0,-29.7l0,-29.7l24.3,0.4c22.7,0.3 24.5,0.5 29.3,2.6z" id="svg_3"/>
   <path d="m179.34657,245.47747l0,5.5l-5.4,-0.6c-5.1,-0.5 -5.7,-0.4 -8.4,2.4c-5.4,5.4 -5.1,15.8 0.5,20.3c2.9,2.3 9.7,2.7 13.8,0.8l2.5,-1.1l0,-16.4c0,-13.8 -0.2,-16.3 -1.5,-16.3c-1.1,0 -1.5,1.3 -1.5,5.4zm-2.2,8.2c2.2,0.6 2.3,1 2,9.3l-0.3,8.6l-5.2,0.3c-4.6,0.3 -5.4,0 -6.9,-2.3c-2.3,-3.5 -1.5,-12.9 1.2,-15c2,-1.5 5.5,-1.9 9.2,-0.9z" id="svg_7"/>
   <path d="m363.34657,258.07747c0,14.4 0.2,17 1.5,17c1.3,0 1.5,-2.6 1.5,-17c0,-14.4 -0.2,-17 -1.5,-17c-1.3,0 -1.5,2.6 -1.5,17z" id="svg_8"/>
   <path d="m119.34656,258.57747c0,15.8 0.1,16.5 2,16.5c1.8,0 2,-0.7 2,-7l0,-7l4,0c3.8,0 4.2,0.3 8.6,7c3.1,4.6 5.3,7 6.6,7c1.9,0 1.9,0 0,-2.8c-1.1,-1.5 -3.1,-4.6 -4.6,-7l-2.6,-4.2l2.4,-1c5.2,-1.9 6.5,-11.2 2.1,-15.5c-2.2,-2.3 -3.2,-2.5 -11.5,-2.5l-9,0l0,16.5zm18.2,-11.8c2.2,2 2.3,7 0.1,9.5c-1.2,1.4 -3.1,1.8 -8,1.8l-6.3,0l0,-6.5l0,-6.5l6.2,0c4.3,0 6.7,0.5 8,1.7z" id="svg_9"/>
   <path d="m151.34656,243.57747c0,0.8 0.7,1.5 1.5,1.5c0.8,0 1.5,-0.7 1.5,-1.5c0,-0.8 -0.7,-1.5 -1.5,-1.5c-0.8,0 -1.5,0.7 -1.5,1.5z" id="svg_10"/>
   <path d="m229.34657,243.57747c0,1.2 1.3,1.5 6,1.5l6,0l0,15c0,12.7 0.2,15 1.5,15c1.3,0 1.5,-2.3 1.5,-15l0,-15l6,0c4.7,0 6,-0.3 6,-1.5c0,-1.3 -2.2,-1.5 -13.5,-1.5c-11.3,0 -13.5,0.2 -13.5,1.5z" id="svg_11"/>
   <path d="m303.84657,244.27747c-3.7,2.9 -5.5,7.6 -5.4,14c0.1,11.1 4.8,16.8 13.8,16.8c9.9,0 15.1,-5.6 15.1,-16.3c0,-11.6 -4.4,-16.7 -14.5,-16.7c-4.9,0 -6.8,0.5 -9,2.2zm16.9,3.1c2.8,2.8 4.1,9.1 3.1,15.2c-0.9,6 -5,9.5 -11.2,9.5c-8,0 -12.4,-7.1 -10.9,-17.4c1,-6.7 4.5,-9.6 11.3,-9.6c4.3,0 5.9,0.5 7.7,2.3z" id="svg_12"/>
   <path d="m374.34657,243.57747c0,0.8 0.9,1.5 2,1.5c1.1,0 2,-0.7 2,-1.5c0,-0.8 -0.9,-1.5 -2,-1.5c-1.1,0 -2,0.7 -2,1.5z" id="svg_13"/>
   <path d="m151.34656,262.57747c0,10.4 0.2,12.5 1.5,12.5c1.3,0 1.5,-2.1 1.5,-12.5c0,-10.4 -0.2,-12.5 -1.5,-12.5c-1.3,0 -1.5,2.1 -1.5,12.5z" id="svg_14"/>
   <path d="m193.84657,252.37747c-5,4.3 -5,16.1 -0.1,20.4c3.9,3.3 15.6,3.2 15.6,-0.1c0,-0.9 -1.7,-1.1 -5.8,-0.8c-5.5,0.4 -6,0.2 -8,-2.3c-1.2,-1.5 -2.2,-3.6 -2.2,-4.6c0,-1.7 0.9,-1.9 9,-1.9c5,0 9,-0.3 9,-0.8c0,-3 -2.5,-8.5 -4.7,-10.2c-3.5,-2.8 -9.4,-2.7 -12.8,0.3zm11.7,2.4c1,0.9 1.8,2.4 1.8,3.5c0,1.6 -0.9,1.8 -7,1.8c-5.6,0 -7,-0.3 -7,-1.5c0,-4.6 8.4,-7.3 12.2,-3.8z" id="svg_15"/>
   <path d="m260.24657,251.57747c-4.6,2.5 -6.3,11.2 -3.5,18c1.8,4.2 4.2,5.5 10,5.5c6.9,0 9.8,-3 10.4,-10.7c0.7,-9.7 -2.9,-14.4 -11.1,-14.3c-1.8,0.1 -4.4,0.7 -5.8,1.5zm12,4.1c2.8,3.6 2.8,10.2 0,13.8c-1.8,2.3 -2.8,2.7 -6.3,2.4c-3.6,-0.3 -4.3,-0.7 -6,-4.1c-3.4,-7.1 0.1,-14.7 6.8,-14.7c2.5,0 4,0.7 5.5,2.6z" id="svg_16"/>
   <path d="m337.64657,251.27747c-2.2,1.1 -2.3,1.7 -2.3,12.5c0,9.3 0.3,11.3 1.5,11.3c1.1,0 1.5,-2.1 1.7,-10.8l0.3,-10.7l4.6,-0.3c7,-0.5 7.9,0.9 7.9,12.4c0,7.7 0.3,9.4 1.5,9.4c1.2,0 1.5,-1.8 1.5,-10.4c0,-10.1 -0.1,-10.5 -2.6,-12.5c-3,-2.3 -10.2,-2.8 -14.1,-0.9z" id="svg_17"/>
   <path d="m375.04657,250.77747c-0.4,0.3 -0.7,6 -0.7,12.5c0,11.1 0.1,11.8 2,11.8c1.9,0 2,-0.7 2,-12.5c0,-9.7 -0.3,-12.5 -1.3,-12.5c-0.8,0 -1.7,0.3 -2,0.7z" id="svg_18"/>
   <path d="m389.14657,251.27747l-2.8,1l0,11.4c0,9.3 0.3,11.4 1.5,11.4c1.1,0 1.5,-2.1 1.7,-10.8l0.3,-10.7l4.9,-0.3c7.5,-0.5 8.6,1 8.6,12.5c0,7.6 0.3,9.3 1.5,9.3c1.2,0 1.5,-1.8 1.5,-10c0,-9.4 -0.2,-10.3 -2.5,-12.5c-1.9,-2 -3.4,-2.5 -7.2,-2.4c-2.6,0 -6,0.5 -7.5,1.1z" id="svg_19"/>
   <path d="m417.14657,252.97747c-3.1,2.8 -3.3,3.3 -3.3,9.6c0,6.3 0.2,6.8 3.3,9.6c2.6,2.4 4.1,2.9 8.1,2.9c5.7,0 8.1,-0.7 8.1,-2.4c0,-0.9 -1.7,-1.1 -5.9,-0.8c-5,0.4 -6.2,0.1 -8,-1.7c-1.1,-1.1 -2.1,-3.2 -2.1,-4.6c0,-2.5 0.1,-2.5 8.6,-2.5l8.7,0l-0.6,-4.2c-1.2,-8.7 -10.3,-11.8 -16.9,-5.9zm12.2,2.1c3.8,3.8 2.7,5 -5,5c-5.9,0 -7,-0.3 -7,-1.7c0,-4.9 8.1,-7.2 12,-3.3z" id="svg_20"/>
   <g id="svg_21">
    <path d="m430.74657,12.57746c-22.7,5.8 -41.4,18.9 -53.5,37.2c-4.5,6.9 -9.9,18.7 -11.3,24.5l-0.6,2.8l9.2,0.1c37.7,0.6 84.3,-1.2 95.6,-3.6c7.9,-1.6 11.2,-1.3 15.5,1.7c5.6,3.9 7.2,11.4 4.2,19.7c-0.8,2.3 -3.4,8.1 -5.7,12.9c-7.9,16.1 -19.2,24.9 -40.3,31.5c-12.4,3.9 -52.6,12.6 -62.8,13.7c-9.3,0.9 -21,0 -24.7,-2c-3.1,-1.7 -3.3,-1.3 -2.8,5.3c0.6,7.3 2.5,11.3 11.8,25.2c3.7,5.5 8.2,12.8 10,16.3c5.7,10.7 9,11.9 24.7,8.6c10,-2 15.1,-4 31.8,-12.4c7.7,-3.9 26.4,-12.3 41.5,-18.6c30.7,-13 41.9,-18.4 53.1,-25.5l7.6,-4.9l2.7,-8.7c9.5,-31.3 9.2,-54.7 -0.9,-76.2c-11.7,-24.6 -35.3,-42.9 -62.7,-48.5c-11.9,-2.5 -31.1,-2.1 -42.4,0.9z" id="svg_4"/>
    <path d="m360.84657,79.27747c-0.2,0.7 -2.9,15.8 -6,33.6c-3.8,22.3 -5.2,32.9 -4.6,34c0.8,1.5 1,1.5 1.5,0.2c0.7,-1.9 11.6,-65.4 11.6,-67.5c0,-1.8 -1.9,-2 -2.5,-0.3z" id="svg_5"/>
    <path d="m473.24657,79.57747c-7.7,4.2 -4.5,16.5 4.3,16.5c8.5,0 12.2,-10 5.7,-15.4c-3.4,-2.9 -6.1,-3.2 -10,-1.1zm8.9,3.8c1.7,1.3 1.5,5.7 -0.5,7.9c-2.8,3.1 -7.9,2.1 -9.4,-1.9c-2.2,-5.8 4.7,-10 9.9,-6z" id="svg_6"/>
   </g>
  </g>
 </g>

</svg>