<svg width="550" height="250" xmlns="http://www.w3.org/2000/svg" version="1.0" preserveAspectRatio="xMidYMid meet">
 <g>
  <title>Layer 1</title>
  <g id="svg_1">
   <path d="m251.34657,23.72885c-13.8,1.1 -31,6.4 -43.8,13.5c-8.3,4.6 -21.2,13.4 -21.2,14.4c0,1.7 14.9,32 15.8,32c0.5,0 1.7,-0.9 2.7,-2c6,-6.6 25.9,-17.6 36.5,-20c21,-5 34.6,2.4 34.4,18.7c0,5.4 -0.7,7.6 -4.7,15.5c-5.4,11 -6.3,12 -47.6,58.3l-32.1,36l0,15.2l0,15.3l68,0l68,0l0,-18l0,-18l-40.5,0c-22.3,0 -40.5,-0.2 -40.5,-0.5c0,-0.3 10.9,-12.8 24.1,-27.8c28.2,-31.7 37.2,-43.3 43.4,-56c7.2,-14.7 9,-25.4 6.4,-37.9c-4.6,-21.9 -26.5,-37.6 -54.4,-39c-3.3,-0.2 -9.8,0 -14.5,0.3z" id="svg_2"/>
   <path d="m7.04656,26.32885c-0.4,0.3 -0.7,44.4 -0.7,98l0,97.3l22,0l22,0l0,-32l0,-32l14.3,0l14.3,0l17.3,32l17.3,32l24.4,0c13.4,0 24.4,-0.3 24.4,-0.6c0,-0.3 -9.1,-15.5 -20.1,-33.8c-11.1,-18.2 -20.3,-33.4 -20.5,-33.8c-0.2,-0.3 3,-2.3 7.1,-4.3c14.4,-7.1 24.5,-20.2 29.2,-37.5c2.5,-9.3 2.5,-34.1 -0.1,-42.5c-7.9,-26.3 -27.2,-39.7 -61.1,-42.5c-13.4,-1.1 -88.8,-1.4 -89.8,-0.3zm96.9,39.1c9.4,4.3 14,11.1 15.1,22.5c0.7,8 -1,16.3 -4.7,22c-2.2,3.6 -4.3,5.2 -9.7,7.9l-6.8,3.3l-23.7,0.3l-23.8,0.4l0,-29.7l0,-29.7l24.3,0.4c22.7,0.3 24.5,0.5 29.3,2.6z" id="svg_3"/>
   <g id="svg_21">
    <path d="m430.74657,31.12885c-22.7,5.8 -41.4,18.9 -53.5,37.2c-4.5,6.9 -9.9,18.7 -11.3,24.5l-0.6,2.8l9.2,0.1c37.7,0.6 84.3,-1.2 95.6,-3.6c7.9,-1.6 11.2,-1.3 15.5,1.7c5.6,3.9 7.2,11.4 4.2,19.7c-0.8,2.3 -3.4,8.1 -5.7,12.9c-7.9,16.1 -19.2,24.9 -40.3,31.5c-12.4,3.9 -52.6,12.6 -62.8,13.7c-9.3,0.9 -21,0 -24.7,-2c-3.1,-1.7 -3.3,-1.3 -2.8,5.3c0.6,7.3 2.5,11.3 11.8,25.2c3.7,5.5 8.2,12.8 10,16.3c5.7,10.7 9,11.9 24.7,8.6c10,-2 15.1,-4 31.8,-12.4c7.7,-3.9 26.4,-12.3 41.5,-18.6c30.7,-13 41.9,-18.4 53.1,-25.5l7.6,-4.9l2.7,-8.7c9.5,-31.3 9.2,-54.7 -0.9,-76.2c-11.7,-24.6 -35.3,-42.9 -62.7,-48.5c-11.9,-2.5 -31.1,-2.1 -42.4,0.9z" id="svg_4"/>
    <path d="m360.84657,97.82886c-0.2,0.7 -2.9,15.8 -6,33.6c-3.8,22.3 -5.2,32.9 -4.6,34c0.8,1.5 1,1.5 1.5,0.2c0.7,-1.9 11.6,-65.4 11.6,-67.5c0,-1.8 -1.9,-2 -2.5,-0.3z" id="svg_5"/>
    <path d="m473.24657,98.12886c-7.7,4.2 -4.5,16.5 4.3,16.5c8.5,0 12.2,-10 5.7,-15.4c-3.4,-2.9 -6.1,-3.2 -10,-1.1zm8.9,3.8c1.7,1.3 1.5,5.7 -0.5,7.9c-2.8,3.1 -7.9,2.1 -9.4,-1.9c-2.2,-5.8 4.7,-10 9.9,-6z" id="svg_6"/>
   </g>
  </g>
 </g>

</svg>